<?xml version="1.0" encoding="UTF-8" standalone="no"?>
<!DOCTYPE svg PUBLIC "-//W3C//DTD SVG 1.1//EN" "http://www.w3.org/Graphics/SVG/1.1/DTD/svg11.dtd">
<svg width="100%" height="100%" viewBox="0 0 800 800" version="1.1" xmlns="http://www.w3.org/2000/svg" xmlns:xlink="http://www.w3.org/1999/xlink" xml:space="preserve" xmlns:serif="http://www.serif.com/" style="fill-rule:evenodd;clip-rule:evenodd;stroke-linejoin:round;stroke-miterlimit:2;">
    <g transform="matrix(1,0,0,1,-44.4282,-36.6443)">
        <g transform="matrix(0.275097,0,0,0.275097,-432.618,-835.047)">
            <g transform="matrix(1,0,0,1,-88.6156,-4.54747e-13)">
                <path d="M1984.22,4540.12C2035.91,4538.78 2078.04,4524.85 2110.6,4498.33C2143.16,4471.81 2164.81,4435.39 2175.55,4389.07C2186.3,4342.74 2192,4263.52 2192.68,4151.4C2193.35,4039.29 2195.36,3965.44 2198.72,3929.86C2204.76,3873.46 2216.01,3828.14 2232.45,3793.91C2248.9,3759.67 2269.21,3732.31 2293.38,3711.83C2317.55,3691.36 2348.43,3675.75 2386.03,3665.01C2411.54,3658.29 2453.16,3654.93 2510.9,3654.93L2567.29,3654.93L2567.29,3813.04L2536.08,3813.04C2466.25,3813.04 2419.93,3825.63 2397.1,3850.8C2374.28,3875.98 2362.87,3932.21 2362.87,4019.48C2362.87,4195.38 2359.17,4306.49 2351.79,4352.81C2339.7,4424.65 2319.06,4480.04 2289.85,4518.98C2260.65,4557.91 2214.83,4592.49 2152.39,4622.7C2226.24,4653.58 2279.78,4700.74 2313.02,4764.19C2346.25,4827.63 2362.87,4931.53 2362.87,5075.87C2362.87,5206.78 2364.21,5284.66 2366.89,5309.5C2372.26,5355.15 2385.86,5387.04 2407.68,5405.17C2429.5,5423.3 2472.3,5432.36 2536.08,5432.36L2567.29,5432.36L2567.29,5590.47L2510.9,5590.47C2445.11,5590.47 2397.44,5585.09 2367.9,5574.35C2324.93,5558.91 2289.35,5533.9 2261.15,5499.33C2232.96,5464.75 2214.66,5420.95 2206.27,5367.91C2197.88,5314.87 2193.35,5227.93 2192.68,5107.09C2192,4986.24 2186.3,4902.66 2175.55,4856.33C2164.81,4810.01 2143.16,4773.42 2110.6,4746.57C2078.04,4719.71 2035.91,4705.61 1984.22,4704.27L1984.22,4540.12Z" style="fill-rule:nonzero;"/>
            </g>
            <g transform="matrix(1,0,0,1,88.6156,0)">
                <path d="M4392.05,4540.12L4392.05,4704.27C4340.36,4705.61 4298.23,4719.71 4265.67,4746.57C4233.11,4773.42 4211.45,4809.84 4200.71,4855.83C4189.97,4901.82 4184.26,4980.87 4183.59,5092.99C4182.92,5205.1 4180.91,5278.95 4177.55,5314.54C4171.51,5371.6 4160.26,5417.09 4143.81,5450.99C4127.37,5484.89 4107.06,5512.08 4082.89,5532.56C4058.72,5553.04 4027.84,5568.65 3990.24,5579.39C3964.73,5586.77 3923.11,5590.47 3865.37,5590.47L3808.97,5590.47L3808.97,5432.36L3840.19,5432.36C3910.01,5432.36 3956.34,5419.77 3979.16,5394.6C4001.99,5369.42 4013.4,5312.86 4013.4,5224.91C4013.4,5057.07 4016.42,4950.66 4022.47,4905.68C4033.21,4831.16 4054.69,4771.57 4086.92,4726.93C4119.14,4682.28 4164.79,4647.54 4223.87,4622.7C4146.67,4585.78 4092.29,4536.93 4060.73,4476.18C4029.18,4415.42 4013.4,4312.87 4013.4,4168.52C4013.4,4037.61 4011.72,3959.4 4008.37,3933.89C4003.67,3888.9 3990.41,3857.52 3968.59,3839.73C3946.77,3821.93 3903.97,3813.04 3840.19,3813.04L3808.97,3813.04L3808.97,3654.93L3865.37,3654.93C3931.16,3654.93 3978.83,3660.31 4008.37,3671.05C4051.33,3685.82 4086.92,3710.66 4115.11,3745.57C4143.31,3780.48 4161.61,3824.45 4170,3877.49C4178.39,3930.53 4182.92,4017.47 4183.59,4138.31C4184.26,4259.16 4189.97,4342.57 4200.71,4388.56C4211.45,4434.55 4233.11,4470.97 4265.67,4497.83C4298.23,4524.68 4340.36,4538.78 4392.05,4540.12Z" style="fill-rule:nonzero;"/>
            </g>
        </g>
        <g transform="matrix(0.632903,0,0,0.733188,444.428,436.644)">
            <g transform="matrix(1,0,0,1,-400,-400)">
                <path d="M689.444,157.444C639.088,144.005 594.893,132.541 547.333,111.222C500.543,90.925 455.374,73.077 412.222,45.889L400,38.333L388,46.111C344.848,73.3 299.679,91.147 252.889,111.444C205.251,132.699 161.981,144.088 111.556,157.444L94.889,161.667L94.889,354C94.889,651.556 389.556,762.889 392.444,764L400,766.667L407.556,764C410.667,764 706.111,651.778 706.111,354L706.111,161.667L689.444,157.444ZM661.667,354C661.667,598.444 444.444,700.889 400,719.111C355.556,700.889 139.333,598.222 139.333,354L139.333,196.111C186.21,182.635 226.098,171.928 270.667,152.111C315.238,132.844 358.449,116.571 400,91.444C441.551,116.571 484.762,132.844 529.333,152.111C573.902,171.928 614.79,182.635 661.667,196.111L661.667,354Z" style="fill-rule:nonzero;"/>
                <rect x="0" y="0" width="800" height="800" style="fill:white;fill-opacity:0;"/>
            </g>
        </g>
        <g transform="matrix(0.888929,0,0,0.888929,88.8564,81.0726)">
            <path d="M414.701,556.811L385.298,556.811C374.472,556.811 365.697,548.035 365.697,537.209L365.697,532.309L434.302,532.309L434.302,537.209C434.302,548.035 425.527,556.811 414.701,556.811ZM352.996,498.007L447.003,498.007L444.003,517.506L355.996,517.506L352.996,498.007ZM392.649,415.413L392.649,483.204L350.996,483.204L350.996,481.012C350.996,456.957 341.434,434.06 324.969,416.524C308.045,398.5 297.54,374.377 297.107,347.805C296.191,291.6 341.319,244.542 397.517,243.218C455.486,241.854 502.907,288.438 502.907,346.096C502.907,373.385 492.285,398.192 474.95,416.61C458.492,434.096 449.003,456.995 449.003,481.007L449.003,483.204L407.35,483.204L407.35,415.576C408.922,411.282 411.049,408.425 413.731,407.003C416.428,405.573 417.215,404.814 424.301,404.725C431.388,404.635 436.487,404.032 439.597,402.915C442.708,401.798 445.286,399.363 447.334,395.61C449.381,391.856 450.838,387.12 451.704,381.401C452.334,377.469 452.649,371.124 452.649,362.367L452.649,354.86L443.377,354.86L443.377,359.016C443.377,367.505 442.855,373.202 441.812,376.106C440.769,379.01 438.928,380.775 436.29,381.401C434.794,381.848 430.207,382.071 422.53,382.071L368.789,382.071C363.631,382.071 360.314,380.552 358.838,377.514C357.361,374.475 356.623,368.309 356.623,359.016L356.623,354.86L347.351,354.86L347.351,362.367C347.351,370.052 347.568,375.592 348.001,378.988C348.631,383.992 349.546,388.103 350.747,391.32C351.948,394.537 353.542,397.24 355.531,399.43C357.519,401.619 360.186,403.116 363.533,403.92C365.619,404.367 369.95,404.635 376.525,404.725C383.1,404.814 383.631,405.573 386.328,407.003C388.976,408.407 391.083,411.21 392.649,415.413Z" style="fill-rule:nonzero;"/>
        </g>
    </g>
    <g transform="matrix(1,0,0,1,0,-3)">
        <path d="M462.71,325.344L341.7,323.537L359.933,471.05L440.572,471.05L462.71,325.344Z"/>
    </g>
</svg>
